<svg width="120" height="120" viewBox="0 0 120 120" fill="none" xmlns="http://www.w3.org/2000/svg">
<g id="Sparkle">
<g id="Group">
<path id="Vector" d="M61.729 59.1452C61.479 58.1452 61.3332 57.3327 61.0623 56.541C58.354 48.541 53.9998 41.416 49.0415 34.6452C48.4582 33.8535 47.729 33.1035 46.9165 32.6035C46.479 32.3327 45.604 32.3744 45.104 32.6452C44.729 32.8535 44.4582 33.666 44.5415 34.1244C44.6873 34.9994 44.9998 35.8952 45.4373 36.6869C48.3123 41.916 51.2082 47.1244 54.1457 52.3119C55.2498 54.2494 56.4165 56.166 57.5623 58.0827C57.9373 58.7285 58.354 59.3535 58.7915 59.9369C59.2707 60.6035 59.9998 60.9994 60.729 60.5619C61.2082 60.2702 61.729 60.0619 61.729 59.1452Z" fill="#CD4631"/>
<path id="Vector_2" d="M32.2294 90.1667C33.2294 90 34.3961 89.875 35.5211 89.625C39.9586 88.625 44.3961 87.625 48.8127 86.5833C49.7711 86.3542 50.7086 85.9583 51.5627 85.5C52.7086 84.8958 53.1044 84.0417 52.9169 83.1042C52.7294 82.1667 51.9794 81.5833 50.6669 81.5625C49.7711 81.5417 48.8127 81.5625 47.9586 81.7708C42.3544 83.1875 36.7502 84.6458 31.1669 86.125C30.5419 86.2917 29.8961 86.5833 29.4169 87C28.2086 88.0208 28.5836 89.625 30.1252 90.0208C30.7294 90.1667 31.4169 90.1042 32.2294 90.1667Z" fill="#CD4631"/>
<path id="Vector_3" d="M90.7708 34.3121C90.6875 33.333 90.4791 32.3538 90.2291 31.3955C90 30.5413 89.4166 29.9371 88.4791 29.8538C87.6875 29.7913 86.8333 30.583 86.7083 31.6246C86.5416 33.0205 86.3958 34.4371 86.4583 35.833C86.6458 40.0413 86.9166 44.2705 87.2083 48.4788C87.3125 49.8746 87.5 51.2705 87.7291 52.6663C87.8125 53.1455 87.9791 53.6455 88.25 54.0205C88.9791 55.083 90.3125 54.9996 90.8333 53.8538C91.125 53.208 91.25 52.4163 91.25 51.708C91.3541 49.3746 91.0416 37.7705 90.7708 34.3121Z" fill="#CD4631"/>
</g>
</g>
</svg>
